<svg width="40" height="40" viewBox="0 0 40 40" fill="none" xmlns="http://www.w3.org/2000/svg">
<path d="M17.7014 8.64139C15.9674 6.97633 13.6429 6.06831 11.2394 6.1171C8.83582 6.16589 6.5501 7.16749 4.88504 8.90155C3.21998 10.6356 2.31197 12.9601 2.36076 15.3636C2.40954 17.7672 3.41114 20.0529 5.1452 21.718L19.1093 35.8836C19.2256 36.0017 19.3642 36.0955 19.5171 36.1595C19.67 36.2235 19.8341 36.2565 19.9999 36.2565C20.1656 36.2565 20.3298 36.2235 20.4827 36.1595C20.6356 36.0955 20.7742 36.0017 20.8905 35.8836L34.8436 21.718C36.5448 20.0189 37.5013 17.7137 37.5027 15.3094C37.5042 12.9051 36.5505 10.5988 34.8514 8.89764C33.1524 7.19652 30.8472 6.24003 28.4429 6.23856C26.0386 6.23709 23.7323 7.19078 22.0311 8.88983L18.2186 12.4836L22.3436 16.6117C22.4599 16.7278 22.5521 16.8657 22.615 17.0174C22.6779 17.1691 22.7102 17.3318 22.7102 17.4961C22.7102 17.6603 22.6779 17.823 22.615 17.9748C22.5521 18.1265 22.4599 18.2644 22.3436 18.3805L19.1108 21.6133C18.9946 21.7293 18.8566 21.8213 18.7048 21.884C18.553 21.9467 18.3904 21.9789 18.2261 21.9788C18.0619 21.9787 17.8993 21.9462 17.7476 21.8832C17.5959 21.8202 17.4581 21.7279 17.3421 21.6117C17.226 21.4955 17.134 21.3575 17.0713 21.2057C17.0086 21.0539 16.9764 20.8912 16.9765 20.727C16.9767 20.5628 17.0092 20.4002 17.0722 20.2485C17.1351 20.0968 17.2274 19.959 17.3436 19.843L19.6874 17.4992L15.5468 13.3461C15.4277 13.2272 15.3339 13.0854 15.271 12.9294C15.2081 12.7733 15.1773 12.6062 15.1805 12.438C15.1837 12.2698 15.2209 12.1039 15.2897 11.9504C15.3585 11.7969 15.4577 11.6588 15.5811 11.5445L17.6983 9.54764C17.7598 9.48925 17.8087 9.41897 17.8422 9.34107C17.8756 9.26318 17.8929 9.17929 17.8929 9.09451C17.8929 9.00974 17.8756 8.92585 17.8422 8.84796C17.8087 8.77006 17.7598 8.69978 17.6983 8.64139H17.7014Z" fill="#C7222A"/>
</svg>
