<svg width="40" height="40" viewBox="0 0 40 40" fill="none" xmlns="http://www.w3.org/2000/svg">
<path d="M37.4607 14.1888C37.4607 14.206 37.4607 14.2216 37.4497 14.2388L33.906 30.4685C33.7969 31.04 33.4919 31.5555 33.0435 31.9263C32.5952 32.2971 32.0315 32.4999 31.4497 32.4997H8.54816C7.96662 32.4995 7.40335 32.2966 6.95531 31.9258C6.50728 31.5551 6.20251 31.0397 6.09347 30.4685L2.54972 14.2388C2.54972 14.2216 2.54191 14.206 2.53878 14.1888C2.44179 13.6515 2.52339 13.0971 2.77111 12.6105C3.01883 12.1239 3.41905 11.7318 3.91061 11.4941C4.40217 11.2564 4.95805 11.1861 5.49329 11.2941C6.02854 11.402 6.51373 11.6823 6.87472 12.0919L12.1357 17.7622L17.7294 5.21692C17.7297 5.21172 17.7297 5.2065 17.7294 5.2013C17.9294 4.76747 18.2496 4.40003 18.6519 4.14247C19.0543 3.88492 19.522 3.74805 19.9997 3.74805C20.4774 3.74805 20.9452 3.88492 21.3475 4.14247C21.7499 4.40003 22.07 4.76747 22.27 5.2013C22.2698 5.2065 22.2698 5.21172 22.27 5.21692L27.8638 17.7622L33.1247 12.0919C33.4865 11.6853 33.971 11.4078 34.5048 11.3016C35.0386 11.1954 35.5924 11.2663 36.0823 11.5036C36.5721 11.7408 36.9711 12.1314 37.2188 12.616C37.4664 13.1006 37.5492 13.6529 37.4544 14.1888H37.4607Z" fill="#70B865"/>
</svg>
